<svg xmlns="http://www.w3.org/2000/svg" version="1.1" xmlns:xlink="http://www.w3.org/1999/xlink" xmlns:svgjs="http://svgjs.dev/svgjs" viewBox="0 0 800 800"><g stroke="hsl(0, 0%, 70%)" fill="none" stroke-linecap="square"><circle r="553.5" cx="400" cy="400" stroke-width="4" stroke-dasharray="2956 3478" transform="rotate(360, 400, 400)" opacity="0.05"></circle><circle r="533" cx="400" cy="400" stroke-width="4" stroke-dasharray="2737 3349" transform="rotate(346, 400, 400)" opacity="0.09"></circle><circle r="512.5" cx="400" cy="400" stroke-width="4" stroke-dasharray="2527 3220" transform="rotate(332, 400, 400)" opacity="0.12"></circle><circle r="492" cx="400" cy="400" stroke-width="4" stroke-dasharray="2324 3091" transform="rotate(318, 400, 400)" opacity="0.16"></circle><circle r="471.5" cx="400" cy="400" stroke-width="4" stroke-dasharray="2131 2963" transform="rotate(305, 400, 400)" opacity="0.20"></circle><circle r="451" cx="400" cy="400" stroke-width="4" stroke-dasharray="1945 2834" transform="rotate(291, 400, 400)" opacity="0.23"></circle><circle r="430.5" cx="400" cy="400" stroke-width="4" stroke-dasharray="1769 2705" transform="rotate(277, 400, 400)" opacity="0.27"></circle><circle r="410" cx="400" cy="400" stroke-width="4" stroke-dasharray="1600 2576" transform="rotate(263, 400, 400)" opacity="0.31"></circle><circle r="389.5" cx="400" cy="400" stroke-width="4" stroke-dasharray="1440 2447" transform="rotate(249, 400, 400)" opacity="0.34"></circle><circle r="369" cx="400" cy="400" stroke-width="4" stroke-dasharray="1289 2318" transform="rotate(235, 400, 400)" opacity="0.38"></circle><circle r="348.5" cx="400" cy="400" stroke-width="4" stroke-dasharray="1145 2190" transform="rotate(222, 400, 400)" opacity="0.42"></circle><circle r="328" cx="400" cy="400" stroke-width="4" stroke-dasharray="1011 2061" transform="rotate(208, 400, 400)" opacity="0.45"></circle><circle r="307.5" cx="400" cy="400" stroke-width="4" stroke-dasharray="884 1932" transform="rotate(194, 400, 400)" opacity="0.49"></circle><circle r="287" cx="400" cy="400" stroke-width="4" stroke-dasharray="766 1803" transform="rotate(180, 400, 400)" opacity="0.53"></circle><circle r="266.5" cx="400" cy="400" stroke-width="4" stroke-dasharray="657 1674" transform="rotate(166, 400, 400)" opacity="0.56"></circle><circle r="246" cx="400" cy="400" stroke-width="4" stroke-dasharray="556 1546" transform="rotate(152, 400, 400)" opacity="0.60"></circle><circle r="225.5" cx="400" cy="400" stroke-width="4" stroke-dasharray="463 1417" transform="rotate(138, 400, 400)" opacity="0.63"></circle><circle r="205" cx="400" cy="400" stroke-width="4" stroke-dasharray="379 1288" transform="rotate(125, 400, 400)" opacity="0.67"></circle><circle r="184.5" cx="400" cy="400" stroke-width="4" stroke-dasharray="303 1159" transform="rotate(111, 400, 400)" opacity="0.71"></circle><circle r="164" cx="400" cy="400" stroke-width="4" stroke-dasharray="236 1030" transform="rotate(97, 400, 400)" opacity="0.74"></circle><circle r="143.5" cx="400" cy="400" stroke-width="4" stroke-dasharray="177 902" transform="rotate(83, 400, 400)" opacity="0.78"></circle><circle r="123" cx="400" cy="400" stroke-width="4" stroke-dasharray="126 773" transform="rotate(69, 400, 400)" opacity="0.82"></circle><circle r="102.5" cx="400" cy="400" stroke-width="4" stroke-dasharray="84 644" transform="rotate(55, 400, 400)" opacity="0.85"></circle><circle r="82" cx="400" cy="400" stroke-width="4" stroke-dasharray="51 515" transform="rotate(42, 400, 400)" opacity="0.89"></circle><circle r="61.5" cx="400" cy="400" stroke-width="4" stroke-dasharray="25 386" transform="rotate(28, 400, 400)" opacity="0.93"></circle><circle r="41" cx="400" cy="400" stroke-width="4" stroke-dasharray="8 258" transform="rotate(14, 400, 400)" opacity="0.96"></circle><circle r="20.5" cx="400" cy="400" stroke-width="4" stroke-dasharray="0 129" opacity="1.00"></circle></g></svg>